<svg id="Layer_1" data-name="Layer 1" viewBox="0 0 752.1 736.4">
	<ellipse transform="matrix(0.9488 -0.3159 0.3159 0.9488 -30.6034 83.2258)" fill="#222" cx="241.4" cy="136" rx="85.6" ry="135.9"/>
	<ellipse transform="matrix(0.3917 -0.9201 0.9201 0.3917 178.2635 541.6781)" fill="#222" cx="498.8" cy="136" rx="135.8" ry="85.7"/>
	<ellipse transform="matrix(0.665 -0.7469 0.7469 0.665 -223.1496 187.105)" fill="#222" cx="97" cy="342.3" rx="74.4" ry="109.6"/>
	<ellipse transform="matrix(0.6879 -0.7258 0.7258 0.6879 -19.9475 571.058)" fill="#222" cx="654" cy="308.7" rx="111.1" ry="75.7"/>
	<path fill="#222" d="M747.3,578.7c-9.7-67.6-60.5-124.7-119.6-134.8l7.4,1.7c-48.9-3.7-96.1-32.2-126.4-76.3
		c-14.6-21.3-25.8-46.4-44.8-62.7c-15.5-13.3-34.9-19.4-54.1-22.6c-30.9-5.1-63.1-3.3-92.3,9.5s-55,37.1-68.5,69.4
		c-7.4,17.8-11,37.5-18.6,55.2C209.1,468,160.4,494,129.8,537c-22.6,31.8-34.8,73.1-33.6,114.1c0.3,10.8,1.6,22,6.5,31.3
		c4.9,9.5,13.1,16.1,21.4,21.7c40.2,27.1,90.4,34.1,135.1,19c56.2-19,105.8-71.2,164.1-65c21,2.2,40.7,12,60.7,19.4
	c73,27,154.5,22,224.6-13.7c9.8-5,19.6-10.8,26.8-19.9C748.9,626.8,750.6,601.3,747.3,578.7z"/>
</svg>
