<svg id="Layer_1" data-name="Layer 1" xmlns="http://www.w3.org/2000/svg" viewBox="0 0 581.01 581">
  <path d="M480.87,597H125.13A112.77,112.77,0,0,1,12.5,484.34V128.66A112.77,112.77,0,0,1,125.13,16H480.87A112.77,112.77,0,0,1,593.5,128.66V484.34A112.77,112.77,0,0,1,480.87,597ZM125.13,42.39a86.35,86.35,0,0,0-86.24,86.27V484.34a86.35,86.35,0,0,0,86.24,86.27H480.87a86.35,86.35,0,0,0,86.24-86.27V128.66a86.35,86.35,0,0,0-86.24-86.27Z" transform="translate(-12.5 -16)" fill="#111"/>
  <path d="M428.75,273.7a24.08,24.08,0,0,1-17.18-7.13L303,158,194.42,266.57A24.3,24.3,0,0,1,160,232.21l143-143L446,232.21a24.31,24.31,0,0,1-17.2,41.49" transform="translate(-12.5 -16)" fill="#111"/>
  <path d="M303,538.3,160.05,395.35A24.31,24.31,0,0,1,194.44,361L303,469.53,411.56,361A24.31,24.31,0,1,1,446,395.35Z" transform="translate(-12.5 -16)" fill="#111"/>
</svg>
