<svg id="Layer_1" data-name="Layer 1" xmlns="http://www.w3.org/2000/svg" viewBox="0 0 648 604.44">
  <path d="M483.26,183.08v386.3c0,20.7,3.14,35.6,25.57,35.6,19.63,0,26.32-13.86,26.32-35.6v-214h10.61v214c0,22.64,8.55,35.6,28.5,35.6,19.25,0,27.17-11.72,27.17-35.6V183.08h12.24V322.52c0,20.29,1.88,32.84,20.75,32.84,15.42,0,21.58-12.38,21.58-32.84V193.68c0-60.18-27-74.85-90.31-74.85H515.52c-64.65,0-86.88,18.41-86.88,77.21V322.52c0,19,2.67,32.84,21.83,32.84,16.63,0,20.56-12.55,20.56-32.84V183.08" transform="translate(-8 -7.22)" fill="#262626"/>
  <path d="M97.85,188.81,35.17,411.09H90V575.35c0,17.9,5.81,31.18,23,31.18,16.19,0,23.49-12.42,23.49-31.18V411.09h12.67V575.35c0,17.9,5.81,31.18,23.07,31.18,16.95,0,23.64-13.28,23.64-31.18V411.09h58.29L189.45,188.81l12.84-3.06L242,312.43c3.55,11.83,13.09,18.19,22.2,18.19,10.86,0,18.07-8.11,18.07-18.63,0-1.41,0-5.55-2.25-13.3L243.65,175.23c-12.45-42-35.09-56.37-75.2-56.37H127c-53.8,0-70.43,17.68-79.58,51.26L8,313.13c0,9.38,8.71,18,18.63,18,8.54,0,16.13-5.55,20-17.4l39-127,12.22,2.09" transform="translate(-8 -7.22)" fill="#262626"/>
  <path d="M444.91,518.05l-12.71-42.8c-5.36-18.12-17.21-46.31-57.5-46.31H329.6c-40.48,0-52.27,28.19-57.94,46.31l-12.45,42.8c-3.94,11.24-.6,19.51,7.92,22,8.11,2.4,14.93-2.71,18.68-12.67l7.7-29.5c1.82-7,5.6-10,11-8.29,5.18,2.26,5.41,7.32,3.34,14.3,0,0-10.85,72.51-3.74,92,6.62,17.86,32,16,48,15.37,16.16.61,40.9,2.49,47.75-15.37,6.82-19.51-4.18-92-4.18-92-1.23-7-1.23-12,3.94-14.3,5-1.72,8.74,1.25,11,8.29l7.85,29.5c3.15,10,10.42,15.07,18.53,12.67,8.29-2.5,11.59-10.77,7.92-22m-93-102.53A48.95,48.95,0,1,0,303,366.57a48.87,48.87,0,0,0,48.83,48.95" transform="translate(-8 -7.22)" fill="#262626"/>
  <path d="M542.27,104.18c25.92,0,47.77-21.76,47.77-49a48.11,48.11,0,0,0-47.77-48c-26,0-47.59,21.39-47.59,48,0,27.24,21.6,49,47.59,49" transform="translate(-8 -7.22)" fill="#262626"/>
  <path d="M145.37,104.18c26,0,46.33-21.76,46.33-47.57S171.35,8.66,145.37,8.66s-46.91,22-46.91,48,21,47.57,46.91,47.57" transform="translate(-8 -7.22)" fill="#262626"/>
</svg>
