<svg id="Layer_1" data-name="Layer 1" xmlns="http://www.w3.org/2000/svg" viewBox="0 0 772.14 772.14">
  <path d="M12.61,738.09V58.45C28.35,20.11,40.21,12.29,82.7,12.29q319.74,0,639.46,0c41.63,0,62.59,21,62.59,62.6q0,319.73,0,639.46c0,42.33-7.5,53.72-46.15,70.07H59C35.27,777.22,19.94,761.66,12.61,738.09ZM400.34,61.77c-107.07,0-214.15.2-321.22-.26-12.89-.06-16.48,3.72-16.45,16.58q.55,319.68,0,639.36c0,12.41,2.94,17,16.27,16.93q319.68-.57,639.36,0c13.72,0,17.24-4.07,17.22-17.54q-.62-318.92.09-637.82c0-15.33-5.44-17.56-18.71-17.5C611.41,62,505.88,61.77,400.34,61.77Z" transform="translate(-12.61 -12.29)" fill="#222"/>
  <path d="M262.69,306.22V651.6H192.15V166.28c30.74,0,61.46-.43,92.13.58,3.59.11,8.35,7.62,10.16,12.58Q342.59,311.11,390.09,443c1.68,4.63,3.75,9.13,6.67,16.17,25-70.19,49-137.75,73-205.3,9.13-25.64,18-51.37,27.69-76.8,1.63-4.29,6.68-10.23,10.3-10.34,28.14-.86,56.31-.47,85.28-.47V651.68h-70.4V306.9l-3.4-.66c-40.49,114.34-81,228.68-122.82,346.81L266,305.68Z" transform="translate(-12.61 -12.29)" fill="#222"/>
</svg>
