<svg id="Layer_1" data-name="Layer 1" xmlns="http://www.w3.org/2000/svg" viewBox="0 0 732.38 614.5">
  <path d="M129.05,159.85a55.6,55.6,0,1,1,55.6,55.6,55.69,55.69,0,0,1-55.6-55.6m55.7,69.6h-1.5a133.5,133.5,0,0,0-132,134.6v58.6a27,27,0,0,0,54,0v-58.9a78.92,78.92,0,0,1,18.9-52.2v366a27,27,0,1,0,53.9,0V472.65h13.2v204.9a27,27,0,0,0,54,0V311.35a78.75,78.75,0,0,1,18.9,50.4v60.9a27,27,0,0,0,54,0v-61.2c-.8-73.1-60.5-132-133.4-132m596.5,182.1c-3.7-8-7.3-16.8-11.1-26.2-25.9-62.1-64.9-155.9-157.8-155.9s-132,93.9-157.7,156c-3.9,9.3-7.6,18.1-11.2,26.1a27,27,0,0,0,13.5,35.7,26.17,26.17,0,0,0,11.1,2.4,26.93,26.93,0,0,0,24.6-15.9c3.9-8.5,7.7-17.8,11.8-27.6,19.4-46.8,37.7-86.1,63.7-106.9l-70.4,174.4c-10,24.6,3.7,44.8,30.2,44.8h23.8v159.1a27,27,0,0,0,54,0V518.45h13.1v159.1a27,27,0,0,0,54,0V518.45h23.9c26.6,0,40.2-20.2,30.3-44.8l-70.4-174.4c26,20.7,44.2,60,63.7,106.8,4,9.8,8,19.2,11.8,27.7a26.93,26.93,0,0,0,24.6,15.9,27.41,27.41,0,0,0,11.1-2.4,27.12,27.12,0,0,0,13.4-35.7m-169-196.2a55.65,55.65,0,1,0-55.6-55.6,55.61,55.61,0,0,0,55.6,55.6m-228-125.3a14.08,14.08,0,0,0-14.1,14.1v580.7a14.1,14.1,0,1,0,28.2,0V104.15a14.08,14.08,0,0,0-14.1-14.1" transform="translate(-51.24 -90.05)" fill="#222"/>
</svg>
