<svg id="Layer_1" data-name="Layer 1" xmlns="http://www.w3.org/2000/svg" viewBox="0 0 752.09 736.37">
  <path d="M28.78,317.59c2.71-4.8,5.33-9.66,8.15-14.4,11-18.36,31.75-27.56,53.13-23.59a49.46,49.46,0,0,1,40.14,39.7c.84,4.22,1.11,8.54,1.85,14.52h27.87c47.62,0,95.26-.18,142.88.32,10.18.1,15.63-2.52,18.93-12.91,19.06-60,38.82-119.85,58.39-179.92C350,120.53,340.16,99.37,349,73.44c6.33-18.56,27.67-33.56,47.89-33.67,21-.11,43.11,15.71,48.91,34.9,8.25,27.35-1.23,46.47-34.08,67.83,24.11,60,48.07,120.23,72.84,180.12,2,4.88,9.59,10.54,14.65,10.61,58.85.74,117.72.47,172.57.47,9.85-16.1,17.17-32.4,28.59-45,6.1-6.72,19.14-9.19,29.27-9.78,23.25-1.37,43.85,15.44,49.75,38,5.34,20.38-4.28,44.15-22.46,55.51-22.92,14.32-42.71,10.61-71.23-13.63-43,36.09-85.92,72.38-129.15,108.32-28,23.26-28.07,23-17.53,57.41q22.77,74.34,45.21,148.64c41.33,4,58.12,15.31,63.85,42.81,4.13,19.85-6.2,42.06-24.53,52.79-19.66,11.49-42.35,9.43-59.3-5.39-19.58-17.12-22.15-38.26-7.81-71.85-18.57-11.81-37.52-23.65-56.24-35.84-31.49-20.49-62.66-41.46-94.41-61.52-4.67-3-13.62-5-17.49-2.51-52.3,33.14-104,67.14-155.92,100.92,13.47,35.69,10.4,56.32-10.74,72.49-18,13.8-41,14.65-59.62,2.2s-26.72-35.64-20-58c7.12-23.77,26.9-35,63.15-34.91Q233,583.23,261.26,490.64L114.85,368c-17.47,11.79-38,19.64-57.78,5.48-11.49-8.21-19-22-28.29-33.28Z" transform="translate(-28.78 -39.77)" fill="#222"/>
</svg>
